# xmcd
#
# Track frame offsets: 
#        182
#        9852
#        20612
#        36637
#        48812
#        67837
#        82107
#        90720
#        104340
#        118855
#        130802
#        141652
#        151890
#        166215
#        173832
#        188965
#        202330
#        215457
#        234110
#        245870
#
# Disc length: 3421 seconds
#
# Revision: 0
# Processed by: cddbd v1.5.2PL0 Copyright (c) Steve Scherf et al.
# Submitted via: ExactAudioCopyFreeDBPlugin 1.0
#
DISCID=1c0d5b14
DTITLE=KTO - Ze Ztracenky na Tornádo
DYEAR=1994
DGENRE=Country
TTITLE0=Na osadě hráli
TTITLE1=Námořník má svou holku rád
TTITLE2=Katarina
TTITLE3=Starý Cowboy
TTITLE4=Čajová růže
TTITLE5=Cesta mořem
TTITLE6=Posázavskej Dan
TTITLE7=Mariňák
TTITLE8=Rikatádo
TTITLE9=Já přijdu za tebou
TTITLE10=Chajda na vodě
TTITLE11=Ve strážním koši
TTITLE12=Hej šup, námořníci
TTITLE13=Líbám tě dnes naposledy
TTITLE14=Nad vodou svítá
TTITLE15=Šefif náš je dobrej táta
TTITLE16=Pár nocí, pár jisker
TTITLE17=Dřímej, kamaráde
TTITLE18=Prokletej bar
TTITLE19=Plácek v oudolí
EXTD=
EXTT0=
EXTT1=
EXTT2=
EXTT3=
EXTT4=
EXTT5=
EXTT6=
EXTT7=
EXTT8=
EXTT9=
EXTT10=
EXTT11=
EXTT12=
EXTT13=
EXTT14=
EXTT15=
EXTT16=
EXTT17=
EXTT18=
EXTT19=
PLAYORDER=
